<?xml version="1.0" standalone="no"?>
<!DOCTYPE svg PUBLIC "-//W3C//DTD SVG 20010904//EN"
 "http://www.w3.org/TR/2001/REC-SVG-20010904/DTD/svg10.dtd">
<svg version="1.0" xmlns="http://www.w3.org/2000/svg"
 width="800.000000pt" height="800.000000pt" viewBox="0 0 800.000000 800.000000"
 preserveAspectRatio="xMidYMid meet">

<g transform="translate(0.000000,800.000000) scale(0.100000,-0.100000)"
fill="#F2C415" stroke="none">
<path d="M7060 7819 c-223 -23 -496 -96 -656 -177 -299 -151 -662 -485 -1110
-1022 -672 -806 -1579 -2175 -2279 -3440 -104 -187 -317 -599 -327 -630 -4
-12 -26 -16 -97 -19 -77 -2 -105 1 -175 23 -89 27 -223 106 -316 184 -182 154
-392 411 -555 682 -32 52 -59 96 -60 98 -3 3 -1349 -891 -1368 -907 -4 -4 41
-63 101 -132 821 -944 1449 -1767 1674 -2194 l60 -115 654 0 c515 0 656 3 659
12 289 850 863 2057 1522 3206 1020 1779 2070 3155 2938 3852 97 78 99 80 136
155 33 67 39 143 15 198 -39 96 -180 174 -377 212 -106 20 -316 27 -439 14z"/>
</g>
</svg>
