<?xml version="1.0" standalone="no"?>
<!DOCTYPE svg PUBLIC "-//W3C//DTD SVG 20010904//EN"
 "http://www.w3.org/TR/2001/REC-SVG-20010904/DTD/svg10.dtd">
<svg version="1.0" xmlns="http://www.w3.org/2000/svg"
 width="515.000000pt" height="514.000000pt" viewBox="0 0 515.000000 514.000000"
 preserveAspectRatio="xMidYMid meet">

<g transform="translate(0.000000,514.000000) scale(0.100000,-0.100000)"
fill="#F2C415" stroke="none">
<path d="M4176 4984 c-82 -18 -151 -52 -187 -91 -32 -34 -254 -350 -392 -557
-598 -900 -1156 -1945 -1532 -2866 -26 -63 -48 -116 -50 -118 -1 -2 -15 21
-30 50 -55 108 -269 457 -357 583 -92 133 -245 325 -318 403 -92 98 -277 135
-492 97 -214 -37 -319 -123 -275 -226 8 -19 45 -68 81 -109 82 -92 209 -259
303 -400 152 -227 326 -547 650 -1190 113 -225 133 -259 171 -287 128 -97 446
-123 613 -52 84 37 102 65 173 274 465 1377 1246 2889 2136 4135 57 80 108
158 114 173 25 65 -54 134 -199 173 -88 23 -321 28 -409 8z"/>
</g>
</svg>
